<?xml version="1.0" encoding="UTF-8"?>
<svg id="Calque_2" data-name="Calque 2" xmlns="http://www.w3.org/2000/svg" viewBox="0 0 283.53 258.98">
  <defs>
    <style>
      .cls-1 {
        stroke-width: 0px;
        fill: white;
      }
    </style>
  </defs>
  <g id="Calque_1-2" data-name="Calque 1">
    <path class="cls-1" d="m52.67,147.91L0,49.13l30.08-16.04,40.41,55.8L46.64,24.26l30.37-16.19,52.67,98.79-18.07,9.64-37.94-71.17,26.61,77.22-17.74,9.46-49.95-64.77,37.94,71.17-17.85,9.52Z"/>
    <path class="cls-1" d="m157.11,113.98c-8.95,0-15.79-2.7-20.51-8.11-4.73-5.41-7.09-13.22-7.09-23.44V29.26c0-9.58,2.34-16.86,7.03-21.82,4.69-4.96,11.54-7.44,20.58-7.44s15.89,2.48,20.58,7.44c4.69,4.96,7.03,12.23,7.03,21.82v53.17c0,10.22-2.36,18.03-7.09,23.44-4.73,5.41-11.57,8.11-20.51,8.11Zm.19-20.61c3.39,0,5.09-3.29,5.09-9.86V28.88c0-5.51-1.65-8.27-4.96-8.27-3.73,0-5.6,2.82-5.6,8.46v54.57c0,3.48.42,5.97,1.27,7.47.85,1.51,2.25,2.26,4.2,2.26Z"/>
    <path class="cls-1" d="m207.99,120.83c-8.31-4.24-13.25-9.69-14.8-16.35-1.55-6.67-.02-14.54,4.6-23.6L235.02,7.81l19.38,9.88-36.82,72.26c-.85,1.66-1.57,3.31-2.16,4.93-.59,1.63-.8,3.1-.62,4.43.18,1.33,1.02,2.38,2.54,3.15s2.91.88,4.08.26c1.17-.62,2.24-1.66,3.2-3.12.96-1.46,1.86-3.02,2.71-4.69l36.82-72.26,19.38,9.88-37.22,73.05c-4.62,9.07-10.08,14.93-16.39,17.6-6.31,2.66-13.62,1.88-21.93-2.36Z"/>
    <path class="cls-1" d="m70,248.09c-9.81-2.86-16.17-7.37-19.08-13.52-2.91-6.15-2.81-14.56.31-25.22l3.07-10.5,21.25,6.2-3.92,13.43c-.73,2.48-.92,4.54-.57,6.16.34,1.62,1.45,2.71,3.32,3.26s3.47.4,4.56-.52c1.09-.92,2.01-2.68,2.77-5.29.96-3.3,1.44-6.15,1.44-8.56,0-2.41-.52-4.86-1.53-7.34-1.02-2.48-2.56-5.49-4.63-9l-6.97-11.97c-5.22-8.9-6.55-17.73-4-26.48s6.84-15.52,12.49-19.08c5.66-3.56,12.51-4.17,20.57-1.81,9.85,2.88,16.08,7.54,18.67,14,2.6,6.46,2.34,15.04-.79,25.74l-21.86-6.38,2.16-7.39c.43-1.47.34-2.73-.25-3.78-.6-1.06-1.61-1.79-3.03-2.21-1.71-.5-3.1-.39-4.17.34-1.07.73-1.83,1.84-2.27,3.35s-.51,3.25-.2,5.24c.3,1.99,1.32,4.47,3.06,7.45l8.92,15.52c1.79,3.09,3.35,6.24,4.66,9.48,1.31,3.23,2.09,6.77,2.33,10.62.25,3.85-.36,8.28-1.82,13.28-2.95,10.1-7.12,17.46-12.51,22.09-5.39,4.63-12.71,5.6-21.95,2.9Z"/>
    <path class="cls-1" d="m158.14,258.98c-10.22,0-17.59-2.54-22.1-7.63-4.52-5.09-6.77-13.19-6.77-24.3v-10.94h22.14v13.99c0,2.59.39,4.61,1.18,6.07.78,1.46,2.15,2.19,4.1,2.19s3.44-.59,4.23-1.78c.78-1.19,1.18-3.14,1.18-5.85,0-3.43-.34-6.31-1.02-8.62-.68-2.31-1.86-4.52-3.53-6.62-1.68-2.1-4-4.55-6.96-7.35l-10.05-9.54c-7.51-7.08-11.26-15.18-11.26-24.3s2.22-16.81,6.65-21.82c4.43-5,10.84-7.51,19.24-7.51,10.26,0,17.54,2.73,21.85,8.21,4.3,5.47,6.46,13.78,6.46,24.93h-22.77v-7.7c0-1.53-.43-2.71-1.3-3.56-.87-.85-2.05-1.27-3.53-1.27-1.78,0-3.08.5-3.91,1.5-.83,1-1.24,2.28-1.24,3.85s.42,3.27,1.27,5.09c.85,1.82,2.52,3.92,5.03,6.3l12.91,12.4c2.59,2.46,4.96,5.06,7.12,7.79,2.16,2.73,3.9,5.92,5.22,9.54,1.31,3.63,1.97,8.05,1.97,13.26,0,10.52-1.94,18.75-5.82,24.71-3.88,5.96-10.63,8.94-20.26,8.94Z"/>
    <path class="cls-1" d="m229.76,253.42l-35.77-106.08,42.43-14.31,6.91,20.49-20.85,7.03,6.97,20.67,20.01-6.75,6.73,19.95-20.01,6.75,8.19,24.29,22.24-7.5,6.97,20.67-43.82,14.78Z"/>
    <path class="cls-1" d="m263.14,152.59v-2.04c0-2.87.64-5.32,1.91-7.35,1.27-2.03,2.68-3.98,4.21-5.86,1.53-1.83,2.91-3.76,4.14-5.79,1.23-2.03,1.84-4.44,1.84-7.24,0-.89-.14-1.66-.41-2.3-.27-.64-.83-.97-1.67-.97-1.29,0-1.93,1.13-1.93,3.38v4.71h-8.09v-2.38c0-4.13.68-7.32,2.04-9.56,1.36-2.24,4.06-3.36,8.09-3.36,3.17,0,5.64.89,7.4,2.67,1.77,1.78,2.65,4.32,2.65,7.61,0,2.25-.31,4.24-.93,5.98-.62,1.73-1.41,3.3-2.38,4.7-.97,1.4-1.98,2.77-3.04,4.1-.82.99-1.6,2.02-2.36,3.08-.76,1.06-1.43,2.19-2.02,3.38h10.47v7.24h-19.93Z"/>
  </g>
</svg>