<?xml version="1.0" standalone="no"?><svg xmlns="http://www.w3.org/2000/svg" viewBox="0 0 1440 320"><path fill="#0099ff" fill-opacity="1" d="M0,128L34.3,128C68.6,128,137,128,206,138.7C274.3,149,343,171,411,154.7C480,139,549,85,617,80C685.7,75,754,117,823,122.7C891.4,128,960,96,1029,106.7C1097.1,117,1166,171,1234,170.7C1302.9,171,1371,117,1406,90.7L1440,64L1440,320L1405.7,320C1371.4,320,1303,320,1234,320C1165.7,320,1097,320,1029,320C960,320,891,320,823,320C754.3,320,686,320,617,320C548.6,320,480,320,411,320C342.9,320,274,320,206,320C137.1,320,69,320,34,320L0,320Z"></path></svg>